<mxfile host="app.diagrams.net" modified="2023-06-29T09:19:01.931Z" agent="Mozilla/5.0 (Windows NT 10.0; Win64; x64; rv:102.0) Gecko/20100101 Firefox/102.0" version="21.5.2" etag="7YLyRVaan5eoKNr1UUKv" type="github">
  <diagram name="Seite-1" id="4uJEseA0gzrAmUSKs4ez">
    <mxGraphModel>
      <root>
        <mxCell id="0" />
        <mxCell id="1" parent="0" />
      </root>
    </mxGraphModel>
  </diagram>
</mxfile>
